<?xml version="1.0" encoding="UTF-8"?>
<svg width="128" height="128" version="1.1" xmlns="http://www.w3.org/2000/svg">
   <path d="m64 1.998a62 62 0 0 0-62 62 62 62 0 0 0 18.3 43.98v-56.86c0-17.02 13.8-30.82 30.82-30.82 14.09-6.8e-5 26.39 9.555 29.87 23.21-1.364-0.1679-2.736-0.2525-4.11-0.2525-4.392-3.8e-5 -8.742 0.8604-12.8 2.533-2.162-5.25-7.279-8.676-12.96-8.676-7.738 0-14.01 6.273-14.01 14.01v17.35h7.212c-0.7091 2.746-1.068 5.571-1.068 8.407 5e-5 2.836 0.3589 5.661 1.068 8.407h-7.212v34.58a62 62 0 0 0 26.89 6.135 62 62 0 0 0 62-62 62 62 0 0 0-62-62zm12.88 44.05c17.02 0 30.82 13.8 30.82 30.82 1e-5 2.843-0.3932 5.672-1.169 8.407h-37.07c-2.413-2.128-3.795-5.19-3.795-8.407 0-3.217 1.382-6.279 3.795-8.407h18.62c-2.646-3.528-6.799-5.605-11.21-5.605-7.738 0-14.01 6.273-14.01 14.01 0 7.738 6.273 14.01 14.01 14.01 3.032 0 5.981-0.9833 8.407-2.802h20.31c-4.618 11.83-16.02 19.62-28.71 19.62h-0.0176c-17.02-9e-3 -30.81-13.81-30.81-30.82 0-17.02 13.8-30.82 30.82-30.82z" style="fill:#277337"/>
   <path d="m64 2a62 62 0 0 0-62 62 62 62 0 0 0 16.67 42.3v-55.64c-2.6e-5 -17.12 13.88-31 31-31 13.51-2.6e-5 25.01 8.648 29.25 20.71-4.665 0.2371-9.233 1.421-13.43 3.479-2.639-6.124-8.731-10.41-15.82-10.41-9.51-1.8e-5 -17.22 7.71-17.22 17.22v17.22h14.47c-0.9227 4.542-0.9227 9.235 0 13.78h-14.47v35.72a62 62 0 0 0 31.55 8.629 62 62 0 0 0 62-62 62 62 0 0 0-62-62zm16.67 41.76c17.12 0 31 13.88 31 31 6e-5 2.318-0.2598 4.629-0.7749 6.889h-42.16c-1.172-2.027-1.843-4.38-1.843-6.889s0.671-4.862 1.843-6.889h27.71c-2.739-6.277-8.936-10.34-15.78-10.34-9.51 0-17.22 7.71-17.22 17.22 0 9.511 7.71 17.22 17.22 17.22 5.421 0 10.52-2.553 13.77-6.889h15.45c-4.378 12.39-16.09 20.66-29.22 20.66-17.12 0-31-13.88-31-31s13.88-31 31-31z" style="display:none;fill:#277337"/>
</svg>
