<?xml version="1.0" encoding="UTF-8"?>
<svg fill="currentColor" version="1.1" viewBox="0 0 128 128" xmlns="http://www.w3.org/2000/svg">
   <defs fill="currentColor">
      <symbol id="shape" viewBox="0 0 128 128">
         <!-- <path d="m50.58 8.66v20.02c-1.323-0.1264-2.664-0.1914-4.02-0.1914-23.15 0-42 18.85-42 42.01 0 23.15 18.85 42.01 42 42.01 19.32 0 35.65-13.14 40.53-30.94h36.39v-72.9zm8 8h56.9v56.9h-27.02c0.07332-1.011 0.1113-2.033 0.1113-3.062 0-18.98-12.67-35.07-29.99-40.25zm-12.02 19.83c18.83 0 34.01 15.18 34.01 34.01s-15.18 34.01-34.01 34.01-34-15.18-34-34.01 15.18-34.01 34-34.01z"/> -->
         <!-- <path d="m84.6 101.8-5.656 5.658 18.53 18.53 18.53-18.53-5.656-5.658-12.87 12.87z"/> -->
         <path d="m84.6 101.8-5.656 5.658 18.53 18.53 18.53-18.53-5.656-5.658-12.87 12.87zm-34.02-93.14v20.02c-1.323-0.1264-2.664-0.1914-4.02-0.1914-23.15 0-42 18.85-42 42.01 0 23.15 18.85 42.01 42 42.01 19.32 0 35.65-13.14 40.53-30.94h36.39v-72.9zm16 16h40.9v40.9h-19.2c-1.627-13.81-9.991-25.6-21.7-31.98zm-20.02 19.83a26 26.01 0 0 1 26 26.01 26 26.01 0 0 1-26 26.01 26 26.01 0 0 1-26-26.01 26 26.01 0 0 1 26-26.01z" />
      </symbol>
      <symbol id="menu" viewBox="0 0 128 128">
         <path d="m24 16c-4.432 0-8 3.568-8 8s3.568 8 8 8h80c4.432 0 8-3.568 8-8s-3.568-8-8-8h-80zm0 40c-4.432 0-8 3.568-8 8s3.568 8 8 8h80c4.432 0 8-3.568 8-8s-3.568-8-8-8h-80zm0 40c-4.432 0-8 3.568-8 8s3.568 8 8 8h80c4.432 0 8-3.568 8-8s-3.568-8-8-8h-80z" />
         <path d="m24 12a12 12 0 0 0-12 12 12 12 0 0 0 12 12h80a12 12 0 0 0 12-12 12 12 0 0 0-12-12h-80zm0 40a12 12 0 0 0-12 12 12 12 0 0 0 12 12h80a12 12 0 0 0 12-12 12 12 0 0 0-12-12h-80zm0 40a12 12 0 0 0-12 12 12 12 0 0 0 12 12h80a12 12 0 0 0 12-12 12 12 0 0 0-12-12h-80z" />
      </symbol>
      <symbol id="v-menu" viewBox="0 0 128 128">
         <use transform="rotate(90 64 64)" width="128" height="128" href="#menu" />
      </symbol>
      <symbol id="ellipsis" viewBox="0 0 128 128">
         <path d="m112 64c0-4.432-3.568-8-8-8s-8 3.568-8 8 3.568 8 8 8 8-3.568 8-8zm-40 0c0-4.432-3.568-8-8-8s-8 3.568-8 8 3.568 8 8 8 8-3.568 8-8zm-40 0c0-4.432-3.568-8-8-8s-8 3.568-8 8 3.568 8 8 8 8-3.568 8-8z" />
         <use transform="rotate(90 64 64)" width="128" height="128" href="#v-ellipsis" />
      </symbol>
      <symbol id="v-ellipsis" viewBox="0 0 128 128">
         <path d="m76 24a12 12 0 0 0-12-12 12 12 0 0 0-12 12 12 12 0 0 0 12 12 12 12 0 0 0 12-12zm0 40a12 12 0 0 0-12-12 12 12 0 0 0-12 12 12 12 0 0 0 12 12 12 12 0 0 0 12-12zm0 40a12 12 0 0 0-12-12 12 12 0 0 0-12 12 12 12 0 0 0 12 12 12 12 0 0 0 12-12z" />
      </symbol>
      <symbol id="close" viewBox="0 0 128 128">
         <path d="m35.71 27.71c-2.045 0-4.089 0.7827-5.656 2.35-3.134 3.134-3.134 8.181 0 11.31l22.63 22.63-22.63 22.63c-3.134 3.134-3.134 8.181 0 11.31 3.134 3.134 8.181 3.134 11.31 0l22.63-22.63 22.63 22.63c3.134 3.134 8.181 3.134 11.31 0 3.134-3.134 3.134-8.181 0-11.31l-22.63-22.63 22.63-22.63c3.134-3.134 3.134-8.181 0-11.31-3.134-3.134-8.181-3.134-11.31 0l-22.63 22.63-22.63-22.63c-1.567-1.567-3.613-2.35-5.658-2.35z" />
      </symbol>
      <symbol id="check" viewBox="0 0 128 128">
         <path d="m106.4 27.71c-2.045 0-4.091 0.7827-5.658 2.35l-50.91 50.91-22.63-22.63c-1.567-1.567-3.611-2.352-5.656-2.352-2.045 1e-6 -4.089 0.7846-5.656 2.352-3.134 3.134-3.134 8.179 0 11.31l28.28 28.29c3.134 3.134 8.181 3.134 11.31 2e-6l56.57-56.57c3.134-3.134 3.134-8.181 0-11.31-1.567-1.567-3.611-2.35-5.656-2.35z" />
      </symbol>
      <symbol id="minus" viewBox="0 0 128 128">
         <path d="m104 56h-80c-4.432-1e-6 -8 3.568-8 8 5e-6 4.432 3.568 8 8 8l80-2e-6c4.432-1e-6 8-3.568 8-8s-3.568-8-8-8z" />
      </symbol>
      <symbol id="backslash" viewBox="0 0 128 128">
         <use transform="rotate(45 64 64)" width="128" height="128" href="#minus" />
      </symbol>
      <symbol id="pipe" viewBox="0 0 128 128">
         <use transform="rotate(90 64 64)" width="128" height="128" href="#minus" />
      </symbol>
      <symbol id="slash" viewBox="0 0 128 128">
         <use transform="rotate(-45 64 64)" width="128" height="128" href="#minus" />
      </symbol>
      <symbol id="plus" viewBox="0 0 128 128">
         <use width="128" height="128" href="#minus" />
         <use transform="rotate(90 64 64)" width="128" height="128" href="#minus" />
      </symbol>
      <symbol id="times" viewBox="0 0 128 128">
         <use transform="rotate(-45 64 64)" width="128" height="128" href="#minus" />
         <use transform="rotate(45 64 64)" width="128" height="128" href="#minus" />
      </symbol>
      <symbol id="asterix" viewBox="0 0 128 128">
         <use transform="rotate(0 64 64)" width="128" height="128" href="#minus" />
         <use transform="rotate(60 64 64)" width="128" height="128" href="#minus" />
         <use transform="rotate(120 64 64)" width="128" height="128" href="#minus" />
      </symbol>
   </defs>
   <g transform="scale(.25)">
      <use width="128" height="128" href="#shape" />
      <use x="128" width="128" height="128" href="#close" />
      <use x="256" width="128" height="128" href="#check" />
      <use y="128" width="128" height="128" href="#menu" />
      <use x="128" y="128" width="128" height="128" href="#v-menu" />
      <use x="256" y="128" width="128" height="128" href="#ellipsis" />
      <use x="384" y="128" width="128" height="128" href="#v-ellipsis" />
      <use y="256" width="128" height="128" href="#minus" />
      <use x="128" y="256" width="128" height="128" href="#backslash" />
      <use x="256" y="256" width="128" height="128" href="#pipe" />
      <use x="384" y="256" width="128" height="128" href="#slash" />
      <use y="384" width="128" height="128" href="#plus" />
      <use x="128" y="384" width="128" height="128" href="#times" />
      <use x="256" y="384" width="128" height="128" href="#asterix" />
   </g>
</svg>