<?xml version="1.0" encoding="UTF-8"?>
<svg version="1.1" viewBox="0 0 128 128" xmlns="http://www.w3.org/2000/svg">
   <defs>
      <symbol id="shape" viewBox="0 0 128 128" fill="currentColor">
         <path d="m50.58 8.66v20.02c-1.323-0.1264-2.664-0.1914-4.02-0.1914-23.15 0-42 18.85-42 42.01 0 23.15 18.85 42.01 42 42.01 19.32 0 35.65-13.14 40.53-30.94h36.39v-72.9zm8 8h56.9v56.9h-27.02c0.07332-1.011 0.1113-2.033 0.1113-3.062 0-18.98-12.67-35.07-29.99-40.25zm-12.02 19.83c18.83 0 34.01 15.18 34.01 34.01 0 18.83-15.18 34.01-34.01 34.01-18.83 0-34-15.18-34-34.01 0-18.83 15.18-34.01 34-34.01z" />
         <path d="m84.6 101.8-5.656 5.658 18.53 18.53 18.53-18.53-5.656-5.658-12.87 12.87z" />
      </symbol>
   </defs>
   <use href="#shape" x="0" y="0" width="128" height="128" />
</svg>