<svg version="1.1" viewBox="0 0 128 128" xmlns="http://www.w3.org/2000/svg">
	<defs>
		<symbol id="logo" viewbox="0 0 128 128">
			<path d="m64 1.998a62 62 0 0 0-62 62 62 62 0 0 0 18.3 43.98v-56.86c0-17.02 13.8-30.82 30.82-30.82 14.09-6.8e-5 26.39 9.555 29.87 23.21-1.364-0.1679-2.736-0.2525-4.11-0.2525-4.392-3.8e-5 -8.742 0.8604-12.8 2.533-2.162-5.25-7.279-8.676-12.96-8.676-7.738 0-14.01 6.273-14.01 14.01v17.35h7.212c-0.7091 2.746-1.068 5.571-1.068 8.407 5e-5 2.836 0.3589 5.661 1.068 8.407h-7.212v34.58a62 62 0 0 0 26.89 6.135 62 62 0 0 0 62-62 62 62 0 0 0-62-62zm12.88 44.05c17.02 0 30.82 13.8 30.82 30.82 1e-5 2.843-0.3932 5.672-1.169 8.407h-37.07c-2.413-2.128-3.795-5.19-3.795-8.407 0-3.217 1.382-6.279 3.795-8.407h18.62c-2.646-3.528-6.799-5.605-11.21-5.605-7.738 0-14.01 6.273-14.01 14.01 0 7.738 6.273 14.01 14.01 14.01 3.032 0 5.981-0.9833 8.407-2.802h20.31c-4.618 11.83-16.02 19.62-28.71 19.62h-0.0176c-17.02-9e-3 -30.81-13.81-30.81-30.82 0-17.02 13.8-30.82 30.82-30.82z" style="fill:#277337" />
		</symbol>
		<symbol id="cat" viewBox="0 0 128 128">
			<path d="m27.48 8.217 17.04 17.04h38.96l17.04-17.04 4.87 24.35c9.739 9.739 14.61 23.13 14.61 36.52 0 28-24.35 48.7-56 48.7s-56-20.7-56-48.7c0-13.39 4.87-26.78 14.61-36.52z" fill="#2f3b46" />
			<circle cx="43.3" cy="63" r="7.304" fill="#fff" />
			<circle cx="84.7" cy="63" r="7.304" fill="#fff" />
			<circle cx="43.3" cy="63" r="3.652" fill="#111" />
			<circle cx="84.7" cy="63" r="3.652" fill="#111" />
			<path d="m64 72.74-7.304 9.739h14.61z" fill="#f19bb2" />
			<path d="m54.26 89.78q9.739 8.522 19.48 0" fill="none" stroke="#111" stroke-linecap="round" stroke-width="3" />
			<path d="m10.43 73.96h31.65m43.83 0h31.65m-107.1 9.739h29.22m48.7 0h29.22" stroke="#111" stroke-linecap="round" stroke-width="3" />
		</symbol>
		<symbol id="clothing-button" viewBox="0 0 128 128">
			<circle cx="64" cy="64" r="50" fill="#d7d7d7" />
			<circle cx="64" cy="64" r="44" fill="#f4f4f4" stroke="#b8b8b8" stroke-width="3" />
			<circle cx="49" cy="49" r="8" fill="#7d7d7d" />
			<circle cx="79" cy="49" r="8" fill="#7d7d7d" />
			<circle cx="49" cy="79" r="8" fill="#7d7d7d" />
			<circle cx="79" cy="79" r="8" fill="#7d7d7d" />
			<path d="M49 49 L79 79 M79 49 L49 79" stroke="#9a9a9a" stroke-width="2" />
		</symbol>
		<symbol id="abc" viewBox="0 0 128 128">
			<text x="18" y="56" font-family="Verdana, sans-serif" font-size="44" font-weight="700" fill="#b35a00">Abc</text>
			<text x="18" y="102" font-family="Verdana, sans-serif" font-size="44" font-weight="700" fill="#b35a00">123</text>
		</symbol>
	</defs>
</svg>