<svg version="1.1" viewBox="0 0 128 128" xmlns="http://www.w3.org/2000/svg">
	<defs>
		<symbol id="logo" viewbox="0 0 128 128">
			<path d="m64 0a64 64 0 0 0-64 64 64 64 0 0 0 17.21 43.66v-57.44c-3e-5 -17.67 14.33-32 32-32 13.95-2.6e-5 25.82 8.927 30.2 21.38-4.816 0.2447-9.532 1.467-13.86 3.591-2.724-6.322-9.013-10.75-16.33-10.75-9.818-1.8e-5 -17.78 7.959-17.78 17.78v17.78h14.94c-0.9525 4.689-0.9525 9.533 0 14.22h-14.94v36.87a64 64 0 0 0 32.57 8.907 64 64 0 0 0 64-64 64 64 0 0 0-64-64zm17.21 43.11c17.67 0 32 14.33 32 32 7e-5 2.393-0.2682 4.778-0.7999 7.111h-43.52c-1.21-2.092-1.903-4.521-1.903-7.111 0-2.59 0.6927-5.019 1.903-7.111h28.61c-2.828-6.479-9.225-10.67-16.29-10.67-9.818 0-17.78 7.959-17.78 17.78 0 9.818 7.959 17.78 17.78 17.78 5.596 0 10.86-2.635 14.22-7.111h15.95c-4.52 12.79-16.61 21.33-30.17 21.33-17.67 0-32-14.33-32-32 0-17.67 14.33-32 32-32z" style="fill:#277337" />
		</symbol>
		<symbol id="cat" viewBox="0 0 128 128">
			<path d="M34 28 L48 42 L80 42 L94 28 L98 48 C106 56 110 67 110 78 C110 101 90 118 64 118 C38 118 18 101 18 78 C18 67 22 56 30 48 Z" fill="#2f3b46"/>
			<circle cx="47" cy="73" r="6" fill="#fff"/>
			<circle cx="81" cy="73" r="6" fill="#fff"/>
			<circle cx="47" cy="73" r="3" fill="#111"/>
			<circle cx="81" cy="73" r="3" fill="#111"/>
			<path d="M64 81 L58 89 L70 89 Z" fill="#f19bb2"/>
			<path d="M56 95 Q64 102 72 95" stroke="#111" stroke-width="3" fill="none" stroke-linecap="round"/>
			<path d="M20 82 H46 M82 82 H108 M20 90 H44 M84 90 H108" stroke="#111" stroke-width="3" stroke-linecap="round"/>
		</symbol>
		<symbol id="clothing-button" viewBox="0 0 128 128">
			<circle cx="64" cy="64" r="50" fill="#d7d7d7"/>
			<circle cx="64" cy="64" r="44" fill="#f4f4f4" stroke="#b8b8b8" stroke-width="3"/>
			<circle cx="49" cy="49" r="8" fill="#7d7d7d"/>
			<circle cx="79" cy="49" r="8" fill="#7d7d7d"/>
			<circle cx="49" cy="79" r="8" fill="#7d7d7d"/>
			<circle cx="79" cy="79" r="8" fill="#7d7d7d"/>
			<path d="M49 49 L79 79 M79 49 L49 79" stroke="#9a9a9a" stroke-width="2"/>
		</symbol>
		<symbol id="abc" viewBox="0 0 128 128">
			<text x="18" y="56" font-family="Verdana, sans-serif" font-size="44" font-weight="700" fill="#b35a00">Abc</text>
			<text x="18" y="102" font-family="Verdana, sans-serif" font-size="44" font-weight="700" fill="#b35a00">123</text>
		</symbol>
	</defs>
</svg>